<?xml version="1.0" encoding="utf-8"?>
<!-- Generator: Adobe Illustrator 24.0.0, SVG Export Plug-In . SVG Version: 6.00 Build 0)  -->
<svg version="1.1" id="Ebene_1" xmlns="http://www.w3.org/2000/svg" xmlns:xlink="http://www.w3.org/1999/xlink" x="0px" y="0px"
	 viewBox="0 0 575.2 575.2" style="enable-background:new 0 0 575.2 575.2;" xml:space="preserve">
<style type="text/css">
	.st0{fill:#FFFFFF;}
	.st1{fill:#FB9073;}
	.st2{fill:#16DCD0;}
</style>
<path class="st0" d="M286.7,3.2C238,3.2,192.1,15.5,152,37c5.1,4.5,9.5,9.8,13.1,15.6c36.4-18.8,77.7-29.4,121.5-29.4
	c146.5,0,265.2,118.7,265.2,265.2S433.1,553.6,286.7,553.6S21.5,434.8,21.5,288.4c0-52.4,15.2-101.2,41.4-142.3
	c-5.5-4.1-10.3-9-14.4-14.4c-29.7,45-46.9,98.8-46.9,156.7c0,157.5,127.7,285.1,285.1,285.1s285.1-127.7,285.1-285.1
	S444.2,3.2,286.7,3.2z"/>
<path class="st0" d="M287.4,91.3c-109.2,0-197.8,88.5-197.8,197.8s88.5,197.8,197.8,197.8c0.4,0,0.9,0,1.3,0
	c-3.7-7.4-6.1-15.5-6.9-24.2c-93.3-2.9-168.1-79.5-168.1-173.6c0-95.9,77.8-173.7,173.7-173.7s173.7,77.8,173.7,173.7
	c0,51.8-22.7,98.2-58.6,130.1c4.7,6.8,8.2,14.6,10.1,23c44.3-36.3,72.5-91.4,72.5-153.1C485.1,179.8,396.6,91.3,287.4,91.3z"/>
<circle class="st1" cx="285.7" cy="290.2" r="90.9"/>
<circle class="st2" cx="79" cy="115" r="58.4"/>
<circle class="st2" cx="376.5" cy="453.3" r="49.1"/>
</svg>
