<?xml version="1.0" encoding="utf-8"?>
<!-- Generator: Adobe Illustrator 24.0.0, SVG Export Plug-In . SVG Version: 6.00 Build 0)  -->
<svg version="1.1" id="Ebene_1" xmlns="http://www.w3.org/2000/svg" xmlns:xlink="http://www.w3.org/1999/xlink" x="0px" y="0px"
	 viewBox="0 0 575.2 575.2" style="enable-background:new 0 0 575.2 575.2;" xml:space="preserve">
<style type="text/css">
	.st0{fill:#FFFFFF;}
	.st1{fill:#FB9073;}
	.st2{fill:#16DCD0;}
</style>
<path class="st0" d="M287.6,2.9c-47.8,0-92.9,11.8-132.5,32.6c1.1,1.2,2.1,2.5,3.1,3.8c38.7-20.2,82.7-31.6,129.4-31.6
	c154.7,0,280.1,125.4,280.1,280.1S442.3,568,287.6,568S7.4,442.6,7.4,287.9c0-50.2,13.2-97.3,36.3-138c-1.3-1-2.5-2.1-3.7-3.2
	C16.2,188.3,2.6,236.5,2.6,287.9c0,157.4,127.6,284.9,284.9,284.9s284.9-127.6,284.9-284.9S444.9,2.9,287.6,2.9z"/>
<path class="st0" d="M288.1,101.5c-103.5,0-187.3,83.9-187.3,187.3c0,102.8,82.8,186.2,185.3,187.3c-0.5-1.7-0.9-3.4-1.2-5.1
	c-99.2-1.7-179-82.6-179-182.2c0-100.7,81.6-182.3,182.3-182.3s182.3,81.6,182.3,182.3c0,54.4-23.9,103.3-61.7,136.7
	c0.9,1.5,1.6,3.1,2.4,4.7c39.5-34.3,64.5-85,64.5-141.4C475.5,185.4,391.6,101.5,288.1,101.5z"/>
<circle class="st1" cx="285.7" cy="290.2" r="90.9"/>
<circle class="st2" cx="79" cy="115" r="58.4"/>
<circle class="st2" cx="376.5" cy="453.3" r="49.1"/>
</svg>
