<?xml version="1.0" encoding="iso-8859-1"?>
<!-- Generator: Adobe Illustrator 24.1.3, SVG Export Plug-In . SVG Version: 6.00 Build 0)  -->
<svg version="1.1" id="Ebene_1" xmlns="http://www.w3.org/2000/svg" xmlns:xlink="http://www.w3.org/1999/xlink" x="0px" y="0px"
	 viewBox="0 0 100 100" style="enable-background:new 0 0 100 100;" xml:space="preserve">
<style type="text/css">
	.st0{fill:#FFFFFF;}
	.st1{fill:#FB9073;}
	.st2{fill:#16DCD0;}
</style>
<path class="st0" d="M49.9,2.7c-8,0-15.5,2-22.1,5.4c0.2,0.2,0.4,0.4,0.5,0.6c6.5-3.4,13.8-5.3,21.6-5.3c25.8,0,46.7,20.9,46.7,46.7
	S75.7,97,49.9,97S3.2,76.1,3.2,50.3c0-8.4,2.2-16.2,6.1-23c-0.2-0.2-0.4-0.4-0.6-0.5c-4,6.9-6.2,15-6.2,23.5
	c0,26.2,21.3,47.5,47.5,47.5s47.5-21.3,47.5-47.5S76.1,2.7,49.9,2.7z"/>
<path class="st0" d="M50,19.2c-17.3,0-31.2,14-31.2,31.2c0,17.1,13.8,31,30.9,31.2c-0.1-0.3-0.2-0.6-0.2-0.9
	C32.9,80.5,19.6,67,19.6,50.4C19.6,33.6,33.2,20,50,20s30.4,13.6,30.4,30.4c0,9.1-4,17.2-10.3,22.8c0.2,0.3,0.3,0.5,0.4,0.8
	c6.6-5.7,10.8-14.2,10.8-23.6C81.2,33.2,67.3,19.2,50,19.2z"/>
<circle class="st1" cx="49.6" cy="50.6" r="15.2"/>
<circle class="st2" cx="15.1" cy="21.4" r="9.7"/>
<circle class="st2" cx="64.7" cy="77.8" r="8.2"/>
</svg>
